# xmcd CD database file
# Copyright (C) 1993-1998 Ti Kan
#
# Track frame offsets:
#  150
#  11022
#  22252
#  34875
#  46582
#  58712
#  71662
#  90850
#  104427
#  114465
#  124790
#  134925
#  146080
#  155302
#  166295
#  180835
#  192205
#  205115
#  216947
#  229855
#
# Disc length: 3180 seconds
#
# Revision: 1
# Processed by: cddbd v1.4b41PL1 Copyright (c) Steve Scherf et al.
# Submitted via: KiC 2.1 - (C) 1996-1998 Alwin Hoogerdijk
#
DISCID=1a0c6a14
DTITLE=Kenny Baker - Master Fiddler
DYEAR=1900
DGENRE=
TTITLE0=Flopareno
TTITLE1=First Day in Town
TTITLE2=Denver Belle
TTITLE3=Sugar Tree Stomp
TTITLE4=Cricket on the Hearth
TTITLE5=Tune for Andy
TTITLE6=Washington County
TTITLE7=Festival Waltz
TTITLE8=Grassy Fiddle Blues
TTITLE9=Smoky Mountain Rag
TTITLE10=Brandywine
TTITLE11=Dry and Dusty
TTITLE12=Make a Little Boat
TTITLE13=Gold Rush
TTITLE14=Roxanna Waltz
TTITLE15=Lost Indian
TTITLE16=Cross-Eyed Fiddler
TTITLE17=Sweet Bunch of Daisies
TTITLE18=Indian Killed a Woodcock
TTITLE19=Daley's Reel
EXTD=
EXTT0=
EXTT1=
EXTT2=
EXTT3=
EXTT4=
EXTT5=
EXTT6=
EXTT7=
EXTT8=
EXTT9=
EXTT10=
EXTT11=
EXTT12=
EXTT13=
EXTT14=
EXTT15=
EXTT16=
EXTT17=
EXTT18=
EXTT19=
PLAYORDER=
